<svg width="382" height="58" viewBox="0 0 382 58" fill="none" xmlns="http://www.w3.org/2000/svg">
<path d="M0.322 44V42.866L5.344 40.706V4.094L0.322 1.988V0.799999H10.366L33.64 33.416V4.094L28.618 1.988V0.799999H40.12V1.988L34.99 4.094V44H33.64L6.694 6.146V40.706L11.878 42.866V44H0.322ZM56.3985 44.54C53.7345 44.54 51.3225 43.946 49.1625 42.758C47.0025 41.534 45.2925 39.824 44.0325 37.628C42.7725 35.432 42.1425 32.894 42.1425 30.014C42.1425 27.134 42.7545 24.614 43.9785 22.454C45.2385 20.258 46.9125 18.566 49.0005 17.378C51.1245 16.154 53.4825 15.542 56.0745 15.542C58.3425 15.542 60.3765 16.046 62.1765 17.054C63.9765 18.062 65.3805 19.466 66.3885 21.266C67.3965 23.03 67.9185 25.064 67.9545 27.368H48.0825V32.714C48.0825 35.882 48.7845 38.456 50.1885 40.436C51.6285 42.38 53.6985 43.352 56.3985 43.352C58.8825 43.352 61.0785 42.65 62.9865 41.246C64.8945 39.842 66.0645 38.024 66.4965 35.792H67.7385C67.2345 38.456 65.9565 40.58 63.9045 42.164C61.8525 43.748 59.3505 44.54 56.3985 44.54ZM62.0145 26.018C62.0145 22.886 61.5285 20.564 60.5565 19.052C59.5845 17.504 58.0725 16.73 56.0205 16.73C53.6085 16.73 51.7365 17.576 50.4045 19.268C49.0725 20.96 48.3165 23.21 48.1365 26.018H62.0145ZM81.7127 45.08L70.1567 17.648L66.6467 17.108V16.028H78.7427V17.108L76.2047 17.81L84.3587 38.114L89.1647 24.992L85.9787 17.648L83.1707 17.108V16.028H95.9147V17.108L92.0267 17.81L100.181 38.114L107.471 18.566L102.935 17.162V16.082H112.331V17.162L108.983 18.458L99.0467 45.08H97.5347L89.9207 26.828L83.2247 45.08H81.7127ZM122.078 44.54C119.126 44.54 116.66 43.91 114.68 42.65C112.7 41.39 111.71 39.752 111.71 37.736C111.71 36.692 111.98 35.882 112.52 35.306C113.096 34.694 113.852 34.388 114.788 34.388C115.508 34.388 116.12 34.568 116.624 34.928C117.128 35.288 117.488 35.792 117.704 36.44C116.912 37.304 116.516 38.222 116.516 39.194C116.516 40.31 117.02 41.282 118.028 42.11C119.036 42.938 120.386 43.352 122.078 43.352C124.346 43.352 126.2 42.848 127.64 41.84C129.08 40.796 129.8 39.41 129.8 37.682C129.8 36.674 129.494 35.918 128.882 35.414C128.27 34.91 127.082 34.334 125.318 33.686L117.164 30.716C113.96 29.564 112.358 27.422 112.358 24.29C112.358 21.734 113.24 19.646 115.004 18.026C116.768 16.37 119.198 15.542 122.294 15.542C124.85 15.542 127.028 16.136 128.828 17.324C130.664 18.476 131.582 20.132 131.582 22.292C131.582 23.156 131.348 23.858 130.88 24.398C130.412 24.902 129.8 25.154 129.044 25.154C128.288 25.154 127.658 24.956 127.154 24.56C126.686 24.128 126.452 23.552 126.452 22.832C126.92 22.472 127.244 22.094 127.424 21.698C127.604 21.266 127.694 20.762 127.694 20.186C127.694 19.178 127.244 18.35 126.344 17.702C125.48 17.054 124.13 16.73 122.294 16.73C120.71 16.73 119.342 16.982 118.19 17.486C117.074 17.954 116.228 18.584 115.652 19.376C115.076 20.168 114.788 20.978 114.788 21.806C114.788 22.67 115.094 23.354 115.706 23.858C116.354 24.362 117.524 24.92 119.216 25.532L126.776 28.232C128.54 28.88 129.872 29.78 130.772 30.932C131.672 32.084 132.122 33.578 132.122 35.414C132.122 38.042 131.294 40.22 129.638 41.948C127.982 43.676 125.462 44.54 122.078 44.54ZM145.559 44V42.866L150.527 42.056V2.744L145.559 1.988V0.799999H161.435V1.988L156.467 2.744V42.056L161.435 42.866V44H145.559ZM162.894 42.92L166.674 42.38V17.648L162.894 17.108V16.028H172.074V21.86C173.406 19.916 174.972 18.386 176.772 17.27C178.572 16.118 180.516 15.542 182.604 15.542C185.196 15.542 187.23 16.19 188.706 17.486C190.218 18.782 190.974 20.708 190.974 23.264V42.38L194.754 42.92V44H182.334V42.92L185.574 42.38V23.372C185.574 21.5 185.196 20.06 184.44 19.052C183.684 18.008 182.514 17.486 180.93 17.486C179.274 17.486 177.672 18.098 176.124 19.322C174.612 20.51 173.262 21.986 172.074 23.75V42.38L175.314 42.92V44H162.894V42.92ZM206.19 44.54C203.814 44.54 201.906 43.946 200.466 42.758C199.062 41.57 198.36 39.68 198.36 37.088V17.648L194.526 17.108V16.028H198.36V11.546L203.76 10.196V16.028H210.78V17.108L203.76 17.648V36.98C203.76 40.796 205.128 42.704 207.864 42.704C208.44 42.704 208.98 42.614 209.484 42.434C210.024 42.254 210.438 42.074 210.726 41.894C211.05 41.714 211.248 41.588 211.32 41.516L212.022 42.38C210.402 43.82 208.458 44.54 206.19 44.54ZM225.058 44.54C222.394 44.54 219.982 43.946 217.822 42.758C215.662 41.534 213.952 39.824 212.692 37.628C211.432 35.432 210.802 32.894 210.802 30.014C210.802 27.134 211.414 24.614 212.638 22.454C213.898 20.258 215.572 18.566 217.66 17.378C219.784 16.154 222.142 15.542 224.734 15.542C227.002 15.542 229.036 16.046 230.836 17.054C232.636 18.062 234.04 19.466 235.048 21.266C236.056 23.03 236.578 25.064 236.614 27.368H216.742V32.714C216.742 35.882 217.444 38.456 218.848 40.436C220.288 42.38 222.358 43.352 225.058 43.352C227.542 43.352 229.738 42.65 231.646 41.246C233.554 39.842 234.724 38.024 235.156 35.792H236.398C235.894 38.456 234.616 40.58 232.564 42.164C230.512 43.748 228.01 44.54 225.058 44.54ZM230.674 26.018C230.674 22.886 230.188 20.564 229.216 19.052C228.244 17.504 226.732 16.73 224.68 16.73C222.268 16.73 220.396 17.576 219.064 19.268C217.732 20.96 216.976 23.21 216.796 26.018H230.674ZM237.669 44V42.92L241.719 42.38V2.42L237.669 1.88V0.799999H247.119V42.38L250.899 42.92V44H237.669ZM250.96 44V42.92L255.01 42.38V2.42L250.96 1.88V0.799999H260.41V42.38L264.19 42.92V44H250.96ZM270.408 9.764C269.4 9.764 268.536 9.422 267.816 8.738C267.096 8.018 266.736 7.154 266.736 6.146C266.736 5.138 267.078 4.292 267.762 3.608C268.482 2.924 269.364 2.582 270.408 2.582C271.38 2.582 272.208 2.924 272.892 3.608C273.576 4.292 273.918 5.138 273.918 6.146C273.918 7.154 273.576 8.018 272.892 8.738C272.208 9.422 271.38 9.764 270.408 9.764ZM264.684 44V42.92L268.464 42.38V17.702L264.684 17.162V16.082H273.864V42.38L277.644 42.92V44H264.684ZM305.781 13.49C305.781 14.894 305.259 16.1 304.215 17.108C303.171 18.116 301.515 18.764 299.247 19.052C300.183 20.42 300.651 22.292 300.651 24.668C300.651 27.476 299.643 29.69 297.627 31.31C295.647 32.93 293.127 33.74 290.067 33.74C288.807 33.74 287.655 33.632 286.611 33.416C284.307 33.56 283.155 34.46 283.155 36.116C283.155 37.052 283.533 37.736 284.289 38.168C285.081 38.6 286.323 38.816 288.015 38.816H294.063C296.979 38.816 299.139 39.41 300.543 40.598C301.983 41.786 302.703 43.82 302.703 46.7C302.703 48.716 302.181 50.57 301.137 52.262C300.129 53.954 298.653 55.286 296.709 56.258C294.765 57.266 292.443 57.77 289.743 57.77C285.675 57.77 282.669 57.158 280.725 55.934C278.817 54.71 277.863 53.09 277.863 51.074C277.863 49.85 278.331 48.77 279.267 47.834C280.203 46.898 281.481 46.43 283.101 46.43C283.425 46.43 284.091 46.502 285.099 46.646C283.983 47.834 283.425 49.238 283.425 50.858C283.425 52.406 283.965 53.756 285.045 54.908C286.125 56.06 287.889 56.636 290.337 56.636C292.461 56.636 294.351 56.222 296.007 55.394C297.699 54.602 298.995 53.558 299.895 52.262C300.795 50.966 301.245 49.634 301.245 48.266C301.245 46.754 300.759 45.656 299.787 44.972C298.815 44.324 297.087 44 294.603 44H288.015C285.495 44 283.587 43.514 282.291 42.542C281.031 41.534 280.401 40.058 280.401 38.114C280.401 36.818 280.761 35.684 281.481 34.712C282.237 33.704 283.191 33.056 284.343 32.768C281.211 31.436 279.645 28.736 279.645 24.668C279.645 21.824 280.635 19.592 282.615 17.972C284.595 16.352 287.079 15.542 290.067 15.542C293.847 15.542 296.583 16.334 298.275 17.918C299.283 17.738 300.039 17.414 300.543 16.946C301.047 16.442 301.299 15.884 301.299 15.272C301.299 14.696 301.137 14.264 300.813 13.976C300.489 13.652 300.111 13.49 299.679 13.49C299.679 12.698 299.967 12.014 300.543 11.438C301.155 10.826 301.875 10.52 302.703 10.52C303.603 10.52 304.341 10.79 304.917 11.33C305.493 11.87 305.781 12.59 305.781 13.49ZM295.575 23.318C295.575 21.122 295.107 19.43 294.171 18.242C293.271 17.054 291.903 16.46 290.067 16.46C286.503 16.46 284.721 18.746 284.721 23.318V25.964C284.721 28.088 285.153 29.762 286.017 30.986C286.917 32.21 288.267 32.822 290.067 32.822C291.903 32.822 293.271 32.21 294.171 30.986C295.107 29.762 295.575 28.088 295.575 25.964V23.318ZM319.41 44.54C316.746 44.54 314.334 43.946 312.174 42.758C310.014 41.534 308.304 39.824 307.044 37.628C305.784 35.432 305.154 32.894 305.154 30.014C305.154 27.134 305.766 24.614 306.99 22.454C308.25 20.258 309.924 18.566 312.012 17.378C314.136 16.154 316.494 15.542 319.086 15.542C321.354 15.542 323.388 16.046 325.188 17.054C326.988 18.062 328.392 19.466 329.4 21.266C330.408 23.03 330.93 25.064 330.966 27.368H311.094V32.714C311.094 35.882 311.796 38.456 313.2 40.436C314.64 42.38 316.71 43.352 319.41 43.352C321.894 43.352 324.09 42.65 325.998 41.246C327.906 39.842 329.076 38.024 329.508 35.792H330.75C330.246 38.456 328.968 40.58 326.916 42.164C324.864 43.748 322.362 44.54 319.41 44.54ZM325.026 26.018C325.026 22.886 324.54 20.564 323.568 19.052C322.596 17.504 321.084 16.73 319.032 16.73C316.62 16.73 314.748 17.576 313.416 19.268C312.084 20.96 311.328 23.21 311.148 26.018H325.026ZM332.4 42.92L336.18 42.38V17.648L332.4 17.108V16.028H341.58V21.86C342.912 19.916 344.478 18.386 346.278 17.27C348.078 16.118 350.022 15.542 352.11 15.542C354.702 15.542 356.736 16.19 358.212 17.486C359.724 18.782 360.48 20.708 360.48 23.264V42.38L364.26 42.92V44H351.84V42.92L355.08 42.38V23.372C355.08 21.5 354.702 20.06 353.946 19.052C353.19 18.008 352.02 17.486 350.436 17.486C348.78 17.486 347.178 18.098 345.63 19.322C344.118 20.51 342.768 21.986 341.58 23.75V42.38L344.82 42.92V44H332.4V42.92ZM375.695 44.54C373.319 44.54 371.411 43.946 369.971 42.758C368.567 41.57 367.865 39.68 367.865 37.088V17.648L364.031 17.108V16.028H367.865V11.546L373.265 10.196V16.028H380.285V17.108L373.265 17.648V36.98C373.265 40.796 374.633 42.704 377.369 42.704C377.945 42.704 378.485 42.614 378.989 42.434C379.529 42.254 379.943 42.074 380.231 41.894C380.555 41.714 380.753 41.588 380.825 41.516L381.527 42.38C379.907 43.82 377.963 44.54 375.695 44.54Z" fill="#07525F"/>
</svg>
