<svg width="60" height="28" viewBox="0 0 60 28" fill="none" xmlns="http://www.w3.org/2000/svg">
<rect x="4.5" y="3.5" width="51" height="21" rx="10.5" stroke="#0EA6C0"/>
<path d="M20.0833 14.5822H16.5833V18.0822H15.4167V14.5822H11.9167V13.4155H15.4167V9.91553H16.5833V13.4155H20.0833V14.5822Z" fill="#0EA6C0"/>
<path d="M35.582 9.83594V10.7061C35.582 11.6138 35.582 12.6074 35.3242 13.9824H36.667V14.9492H32.8105V18.9668H31.6074V14.9492H27.8154V13.9824H34.1104C34.3789 12.6611 34.3896 11.6729 34.3896 10.8027H28.8574V9.83594H35.582ZM46.1738 13.9932V14.9492H37.3223V13.9932H41.1465V13.0264H38.4072V9.64258H45.1104V10.5879H39.5996V12.0596H45.1963V13.0264H42.3389V13.9932H46.1738ZM45.1104 15.7119V18.9883H43.9287V16.668H38.2998V15.7119H45.1104Z" fill="#0EA6C0"/>
</svg>
