<svg width="90" height="90" viewBox="0 0 90 90" fill="none" xmlns="http://www.w3.org/2000/svg">
<g clip-path="url(#clip0_644_7899)">
<path d="M45 0C49.1309 0 53.1152 0.527344 56.9531 1.58203C60.791 2.63672 64.3652 4.16016 67.6758 6.15234C70.9863 8.14453 74.0186 10.4883 76.7725 13.1836C79.5264 15.8789 81.8848 18.9111 83.8477 22.2803C85.8105 25.6494 87.3193 29.2383 88.374 33.0469C89.4287 36.8555 89.9707 40.8398 90 45C90 49.1309 89.4727 53.1152 88.418 56.9531C87.3633 60.791 85.8398 64.3652 83.8477 67.6758C81.8555 70.9863 79.5117 74.0186 76.8164 76.7725C74.1211 79.5264 71.0889 81.8848 67.7197 83.8477C64.3506 85.8105 60.7617 87.3193 56.9531 88.374C53.1445 89.4287 49.1602 89.9707 45 90C40.8691 90 36.8848 89.4727 33.0469 88.418C29.209 87.3633 25.6348 85.8398 22.3242 83.8477C19.0137 81.8555 15.9814 79.5117 13.2275 76.8164C10.4736 74.1211 8.11523 71.0889 6.15234 67.7197C4.18945 64.3506 2.68066 60.7617 1.62598 56.9531C0.571289 53.1445 0.0292969 49.1602 0 45C0 40.8691 0.527344 36.8848 1.58203 33.0469C2.63672 29.209 4.16016 25.6348 6.15234 22.3242C8.14453 19.0137 10.4883 15.9814 13.1836 13.2275C15.8789 10.4736 18.9111 8.11523 22.2803 6.15234C25.6494 4.18945 29.2383 2.68066 33.0469 1.62598C36.8555 0.571289 40.8398 0.0292969 45 0ZM71.499 30.1025L65.5225 24.126L36.5625 53.0859L24.4775 41.001L18.501 46.9775L36.5625 65.0391L71.499 30.1025Z" fill="#0EA6C0"/>
</g>
<defs>
<clipPath id="clip0_644_7899">
<rect width="90" height="90" fill="white"/>
</clipPath>
</defs>
</svg>
