<svg width="100" height="100" viewBox="0 0 100 100" fill="none" xmlns="http://www.w3.org/2000/svg">
<path d="M91.6667 55.5875C87.2155 54.0108 82.4088 53.7271 77.8031 54.769C73.1973 55.811 68.9809 58.1361 65.6418 61.4752C62.3028 64.8142 59.9777 69.0307 58.9357 73.6364C57.8937 78.2422 58.1775 83.0488 59.7542 87.5H12.5C11.3949 87.5 10.3351 87.061 9.55372 86.2796C8.77231 85.4982 8.33333 84.4384 8.33333 83.3333V16.6667C8.33333 15.5616 8.77231 14.5018 9.55372 13.7204C10.3351 12.939 11.3949 12.5 12.5 12.5H87.5C88.6051 12.5 89.6649 12.939 90.4463 13.7204C91.2277 14.5018 91.6667 15.5616 91.6667 16.6667V55.5875ZM50.25 48.6792L23.5333 25.9917L18.1375 32.3417L50.3042 59.6542L81.8917 32.3208L76.4417 26.0167L50.25 48.6792ZM79.1667 91.6667L64.4333 76.9375L70.3292 71.0417L79.1667 79.8833L93.8958 65.15L99.7917 71.0417L79.1667 91.6667Z" fill="#0EA6C0"/>
</svg>
