<svg width="36" height="36" viewBox="0 0 36 36" fill="none" xmlns="http://www.w3.org/2000/svg">
<g clip-path="url(#clip0_644_7749)">
<path d="M18 27C18.51 27 18.9375 26.8275 19.2825 26.4825C19.6275 26.1375 19.8 25.71 19.8 25.2C19.8 24.69 19.6275 24.2625 19.2825 23.9175C18.9375 23.5725 18.51 23.4 18 23.4C17.49 23.4 17.0625 23.5725 16.7175 23.9175C16.3725 24.2625 16.2 24.69 16.2 25.2C16.2 25.71 16.3725 26.1375 16.7175 26.4825C17.0625 26.8275 17.49 27 18 27ZM16.2 19.8H19.8V9H16.2V19.8ZM18 36C15.51 36 13.17 35.5275 10.98 34.5825C8.79 33.6375 6.885 32.355 5.265 30.735C3.645 29.115 2.3625 27.21 1.4175 25.02C0.4725 22.83 0 20.49 0 18C0 15.51 0.4725 13.17 1.4175 10.98C2.3625 8.79 3.645 6.885 5.265 5.265C6.885 3.645 8.79 2.3625 10.98 1.4175C13.17 0.4725 15.51 0 18 0C20.49 0 22.83 0.4725 25.02 1.4175C27.21 2.3625 29.115 3.645 30.735 5.265C32.355 6.885 33.6375 8.79 34.5825 10.98C35.5275 13.17 36 15.51 36 18C36 20.49 35.5275 22.83 34.5825 25.02C33.6375 27.21 32.355 29.115 30.735 30.735C29.115 32.355 27.21 33.6375 25.02 34.5825C22.83 35.5275 20.49 36 18 36Z" fill="#FF3333"/>
</g>
<defs>
<clipPath id="clip0_644_7749">
<rect width="36" height="36" fill="white"/>
</clipPath>
</defs>
</svg>
