<svg width="349" height="52" viewBox="0 0 349 52" fill="none" xmlns="http://www.w3.org/2000/svg">
<path d="M30.541 40H26.0059L5.33398 10.2578H4.96484V40H0.21875V1.82031H4.80664L25.4785 31.6152H25.8477V1.82031H30.541V40ZM48.2619 40.5801C45.5548 40.5801 43.1906 39.9736 41.1691 38.7607C39.1476 37.5479 37.592 35.834 36.5021 33.6191C35.4123 31.4043 34.8673 28.8379 34.8673 25.9199C34.8673 23.002 35.4123 20.4092 36.5021 18.1416C37.592 15.874 39.1125 14.1162 41.0636 12.8682C43.0148 11.6201 45.2736 10.9961 47.84 10.9961C50.0197 10.9961 52.0412 11.4707 53.9045 12.4199C55.7677 13.3691 57.2795 14.916 58.4396 17.0605C59.5998 19.2051 60.1798 21.9473 60.1798 25.2871V27.1855H38.0314V23.3359H55.592C55.592 21.7188 55.2755 20.2861 54.6427 19.0381C54.0099 17.79 53.1046 16.8057 51.9269 16.085C50.7492 15.3643 49.3869 15.0039 47.84 15.0039C46.1525 15.0039 44.6759 15.417 43.4103 16.2432C42.1447 17.0693 41.1603 18.1768 40.4572 19.5654C39.7541 20.9541 39.4025 22.4395 39.4025 24.0215V26.6055C39.4025 28.7148 39.7716 30.5166 40.5099 32.0107C41.2482 33.5049 42.2853 34.6387 43.6213 35.4121C44.9572 36.1855 46.5041 36.5723 48.2619 36.5723C49.3517 36.5723 50.3361 36.4229 51.215 36.124C52.0939 35.8252 52.841 35.4385 53.4562 34.9639C54.0714 34.4893 54.5548 33.9355 54.9064 33.3027H59.758C59.3009 34.7441 58.5451 36.0098 57.4904 37.0996C56.4357 38.1895 55.1173 39.042 53.5353 39.6572C51.9533 40.2725 50.1955 40.5801 48.2619 40.5801ZM61.6585 11.3652H66.4573L72.5745 33.1973H72.8382L78.9027 11.3652H83.7542L89.7132 33.0918H90.0296L96.1468 11.3652H100.893L92.1917 40H87.7093L81.4866 18.168H81.0648L74.8948 40H70.3597L61.6585 11.3652ZM119.668 18.8008C119.352 17.5352 118.71 16.5596 117.744 15.874C116.777 15.1885 115.485 14.8457 113.868 14.8457C112.707 14.8457 111.67 15.0303 110.756 15.3994C109.842 15.7686 109.122 16.2871 108.594 16.9551C108.067 17.623 107.803 18.3613 107.803 19.1699C107.803 20.1191 108.207 20.9277 109.016 21.5957C109.825 22.2637 111.055 22.791 112.707 23.1777L116.979 24.2324C119.545 24.8301 121.461 25.7705 122.727 27.0537C123.993 28.3369 124.625 29.9805 124.625 31.9844C124.625 33.6367 124.186 35.1133 123.307 36.4141C122.428 37.7148 121.145 38.7344 119.457 39.4727C117.77 40.2109 115.749 40.5801 113.393 40.5801C111.249 40.5801 109.403 40.2725 107.856 39.6572C106.309 39.042 105.07 38.1279 104.138 36.915C103.207 35.7021 102.618 34.2344 102.372 32.5117H107.118C107.399 33.8828 108.049 34.9111 109.069 35.5967C110.088 36.2822 111.495 36.625 113.288 36.625C114.624 36.625 115.792 36.4492 116.794 36.0977C117.796 35.7461 118.57 35.2363 119.115 34.5684C119.66 33.9004 119.932 33.127 119.932 32.248C119.932 31.2285 119.554 30.376 118.798 29.6904C118.042 29.0049 116.856 28.4863 115.239 28.1348L110.915 27.1328C108.418 26.5352 106.52 25.5771 105.219 24.2588C103.918 22.9404 103.268 21.332 103.268 19.4336C103.268 17.8164 103.716 16.3662 104.613 15.083C105.509 13.7998 106.757 12.7979 108.357 12.0771C109.957 11.3564 111.793 10.9961 113.868 10.9961C115.801 10.9961 117.506 11.3213 118.983 11.9717C120.459 12.6221 121.637 13.5361 122.516 14.7139C123.395 15.8916 123.922 17.2539 124.098 18.8008H119.668ZM145.091 40H140.345V1.82031H145.091V40ZM155.323 40H150.788V11.3652H155.165V15.8477H155.534C156.272 14.3008 157.327 13.1055 158.698 12.2617C160.069 11.418 161.81 10.9961 163.919 10.9961C165.888 10.9961 167.593 11.3916 169.034 12.1826C170.476 12.9736 171.592 14.1777 172.383 15.7949C173.174 17.4121 173.569 19.416 173.569 21.8066V40H169.034V22.123C169.034 20.6465 168.779 19.3809 168.269 18.3262C167.76 17.2715 167.021 16.4629 166.055 15.9004C165.088 15.3379 163.919 15.0566 162.548 15.0566C161.142 15.0566 159.894 15.3555 158.804 15.9531C157.714 16.5508 156.861 17.4385 156.246 18.6162C155.631 19.7939 155.323 21.1914 155.323 22.8086V40ZM191.185 15.1621H176.261V11.3652H191.185V15.1621ZM185.173 4.50977V31.7734C185.173 32.9336 185.34 33.8213 185.674 34.4365C186.008 35.0518 186.447 35.4736 186.992 35.7021C187.537 35.9307 188.179 36.0449 188.917 36.0449C189.796 36.0449 190.693 36.0098 191.607 35.9395V40.1582C190.693 40.2988 189.638 40.3691 188.443 40.3691C187.107 40.3691 185.841 40.0879 184.646 39.5254C183.45 38.9629 182.475 38.1191 181.719 36.9941C180.963 35.8691 180.585 34.5156 180.585 32.9336V4.50977H185.173ZM206.585 40.5801C203.878 40.5801 201.514 39.9736 199.492 38.7607C197.471 37.5479 195.915 35.834 194.825 33.6191C193.736 31.4043 193.191 28.8379 193.191 25.9199C193.191 23.002 193.736 20.4092 194.825 18.1416C195.915 15.874 197.436 14.1162 199.387 12.8682C201.338 11.6201 203.597 10.9961 206.163 10.9961C208.343 10.9961 210.365 11.4707 212.228 12.4199C214.091 13.3691 215.603 14.916 216.763 17.0605C217.923 19.2051 218.503 21.9473 218.503 25.2871V27.1855H196.355V23.3359H213.915C213.915 21.7188 213.599 20.2861 212.966 19.0381C212.333 17.79 211.428 16.8057 210.25 16.085C209.073 15.3643 207.71 15.0039 206.163 15.0039C204.476 15.0039 202.999 15.417 201.734 16.2432C200.468 17.0693 199.484 18.1768 198.781 19.5654C198.077 20.9541 197.726 22.4395 197.726 24.0215V26.6055C197.726 28.7148 198.095 30.5166 198.833 32.0107C199.572 33.5049 200.609 34.6387 201.945 35.4121C203.281 36.1855 204.827 36.5723 206.585 36.5723C207.675 36.5723 208.659 36.4229 209.538 36.124C210.417 35.8252 211.164 35.4385 211.78 34.9639C212.395 34.4893 212.878 33.9355 213.23 33.3027H218.081C217.624 34.7441 216.868 36.0098 215.814 37.0996C214.759 38.1895 213.441 39.042 211.859 39.6572C210.277 40.2725 208.519 40.5801 206.585 40.5801ZM226.785 40H222.249V1.82031H226.785V40ZM236.384 40H231.849V1.82031H236.384V40ZM241.449 11.3652H245.984V40H241.449V11.3652ZM243.717 6.61914C243.154 6.61914 242.627 6.4873 242.135 6.22363C241.642 5.95996 241.256 5.59082 240.974 5.11621C240.693 4.6416 240.553 4.14062 240.553 3.61328C240.553 3.05078 240.693 2.54102 240.974 2.08398C241.256 1.62695 241.642 1.2666 242.135 1.00293C242.627 0.739258 243.154 0.607422 243.717 0.607422C244.314 0.607422 244.859 0.739258 245.351 1.00293C245.844 1.2666 246.23 1.62695 246.511 2.08398C246.793 2.54102 246.933 3.05078 246.933 3.61328C246.933 4.14062 246.793 4.6416 246.511 5.11621C246.23 5.59082 245.844 5.95996 245.351 6.22363C244.859 6.4873 244.314 6.61914 243.717 6.61914ZM262.65 51.3379C260.365 51.3379 258.335 51.0127 256.559 50.3623C254.784 49.7119 253.378 48.7627 252.341 47.5146C251.304 46.2666 250.697 44.7637 250.521 43.0059H255.268C255.584 44.4473 256.384 45.5371 257.667 46.2754C258.95 47.0137 260.611 47.3828 262.65 47.3828C265.182 47.3828 267.133 46.8203 268.504 45.6953C269.875 44.5703 270.56 42.8477 270.56 40.5273V34.7266H270.191C269.699 35.5703 269.172 36.3174 268.609 36.9678C268.047 37.6182 267.203 38.2158 266.078 38.7607C264.953 39.3057 263.547 39.5781 261.859 39.5781C259.539 39.5781 257.456 39.0068 255.61 37.8643C253.765 36.7217 252.314 35.0693 251.26 32.9072C250.205 30.7451 249.678 28.2051 249.678 25.2871C249.678 22.4043 250.196 19.8818 251.233 17.7197C252.27 15.5576 253.712 13.8965 255.558 12.7363C257.403 11.5762 259.521 10.9961 261.912 10.9961C263.6 10.9961 264.997 11.2686 266.104 11.8135C267.212 12.3584 268.012 12.9121 268.504 13.4746C268.996 14.0371 269.594 14.8457 270.297 15.9004H270.666V11.3652H275.096V40.791C275.096 43.1465 274.559 45.1152 273.487 46.6973C272.415 48.2793 270.947 49.4482 269.084 50.2041C267.221 50.96 265.076 51.3379 262.65 51.3379ZM262.492 35.5176C264.215 35.5176 265.691 35.1133 266.922 34.3047C268.152 33.4961 269.084 32.3447 269.717 30.8506C270.35 29.3564 270.666 27.5547 270.666 25.4453C270.666 23.3711 270.35 21.5518 269.717 19.9873C269.084 18.4229 268.161 17.21 266.948 16.3486C265.735 15.4873 264.25 15.0566 262.492 15.0566C260.734 15.0566 259.24 15.5137 258.01 16.4277C256.779 17.3418 255.848 18.5811 255.215 20.1455C254.582 21.71 254.266 23.4766 254.266 25.4453C254.266 27.4492 254.582 29.207 255.215 30.7188C255.848 32.2305 256.779 33.4082 258.01 34.252C259.24 35.0957 260.734 35.5176 262.492 35.5176ZM292.184 40.5801C289.477 40.5801 287.112 39.9736 285.091 38.7607C283.069 37.5479 281.514 35.834 280.424 33.6191C279.334 31.4043 278.789 28.8379 278.789 25.9199C278.789 23.002 279.334 20.4092 280.424 18.1416C281.514 15.874 283.034 14.1162 284.985 12.8682C286.937 11.6201 289.195 10.9961 291.762 10.9961C293.941 10.9961 295.963 11.4707 297.826 12.4199C299.69 13.3691 301.201 14.916 302.361 17.0605C303.522 19.2051 304.102 21.9473 304.102 25.2871V27.1855H281.953V23.3359H299.514C299.514 21.7188 299.197 20.2861 298.565 19.0381C297.932 17.79 297.026 16.8057 295.849 16.085C294.671 15.3643 293.309 15.0039 291.762 15.0039C290.074 15.0039 288.598 15.417 287.332 16.2432C286.066 17.0693 285.082 18.1768 284.379 19.5654C283.676 20.9541 283.324 22.4395 283.324 24.0215V26.6055C283.324 28.7148 283.693 30.5166 284.432 32.0107C285.17 33.5049 286.207 34.6387 287.543 35.4121C288.879 36.1855 290.426 36.5723 292.184 36.5723C293.274 36.5723 294.258 36.4229 295.137 36.124C296.016 35.8252 296.763 35.4385 297.378 34.9639C297.993 34.4893 298.477 33.9355 298.828 33.3027H303.68C303.223 34.7441 302.467 36.0098 301.412 37.0996C300.358 38.1895 299.039 39.042 297.457 39.6572C295.875 40.2725 294.117 40.5801 292.184 40.5801ZM312.383 40H307.848V11.3652H312.225V15.8477H312.594C313.332 14.3008 314.387 13.1055 315.758 12.2617C317.129 11.418 318.869 10.9961 320.979 10.9961C322.948 10.9961 324.653 11.3916 326.094 12.1826C327.535 12.9736 328.652 14.1777 329.443 15.7949C330.234 17.4121 330.629 19.416 330.629 21.8066V40H326.094V22.123C326.094 20.6465 325.839 19.3809 325.329 18.3262C324.82 17.2715 324.081 16.4629 323.115 15.9004C322.148 15.3379 320.979 15.0566 319.608 15.0566C318.201 15.0566 316.953 15.3555 315.864 15.9531C314.774 16.5508 313.921 17.4385 313.306 18.6162C312.691 19.7939 312.383 21.1914 312.383 22.8086V40ZM348.245 15.1621H333.321V11.3652H348.245V15.1621ZM342.233 4.50977V31.7734C342.233 32.9336 342.4 33.8213 342.734 34.4365C343.068 35.0518 343.507 35.4736 344.052 35.7021C344.597 35.9307 345.239 36.0449 345.977 36.0449C346.856 36.0449 347.752 36.0098 348.666 35.9395V40.1582C347.752 40.2988 346.698 40.3691 345.502 40.3691C344.166 40.3691 342.901 40.0879 341.705 39.5254C340.51 38.9629 339.535 38.1191 338.779 36.9941C338.023 35.8691 337.645 34.5156 337.645 32.9336V4.50977H342.233Z" fill="#07525F"/>
</svg>
