<svg width="82" height="81" viewBox="0 0 82 81" fill="none" xmlns="http://www.w3.org/2000/svg">
<path d="M16 25.9999C16.5874 26.0023 17.1649 25.8493 17.6742 25.5567C18.1834 25.264 18.6063 24.8419 18.9 24.3333C20.5285 21.3993 22.9405 18.9757 25.8667 17.3333C26.2475 17.1144 26.5815 16.8227 26.8496 16.4747C27.1177 16.1268 27.3146 15.7294 27.4291 15.3054C27.5437 14.8813 27.5735 14.4388 27.5171 14.0032C27.4606 13.5676 27.3189 13.1474 27.1 12.7666C26.8811 12.3858 26.5894 12.0518 26.2415 11.7837C25.8935 11.5156 25.4962 11.3187 25.0721 11.2041C24.6481 11.0896 24.2056 11.0597 23.77 11.1162C23.3344 11.1727 22.9142 11.3144 22.5333 11.5333C20.5764 12.6361 18.7816 14.0047 17.2 15.5999C15.5976 17.2081 14.2185 19.0243 13.1 20.9999C12.8796 21.3804 12.7367 21.8007 12.6794 22.2366C12.6221 22.6725 12.6516 23.1155 12.7663 23.5399C12.8809 23.9644 13.0784 24.362 13.3473 24.7098C13.6163 25.0576 13.9514 25.3488 14.3333 25.5666C14.8414 25.8545 15.4161 26.004 16 25.9999ZM22.4333 3.36659C22.3215 2.93734 22.125 2.53474 21.8556 2.18238C21.5861 1.83002 21.249 1.53499 20.8641 1.31457C20.4791 1.09415 20.054 0.95279 19.6138 0.898761C19.1735 0.844732 18.7268 0.879126 18.3 0.999927C14.1786 2.16537 10.4246 4.36739 7.39602 7.39594C4.36747 10.4245 2.16545 14.1785 1.00001 18.2999C0.879206 18.7268 0.844812 19.1734 0.898841 19.6137C0.95287 20.054 1.09423 20.479 1.31465 20.864C1.53507 21.2489 1.8301 21.586 2.18246 21.8555C2.53482 22.125 2.93742 22.3214 3.36667 22.4333C3.79293 22.5828 4.24514 22.6442 4.69583 22.6136C5.14653 22.583 5.58631 22.4611 5.98846 22.2554C6.39061 22.0496 6.74675 21.7643 7.03524 21.4167C7.32373 21.0691 7.53856 20.6664 7.66667 20.2333C8.5335 17.2106 10.137 14.4503 12.3333 12.1999C14.5507 10.0753 17.25 8.51976 20.2 7.66659C20.6362 7.54207 21.0423 7.32983 21.3936 7.04287C21.7449 6.75591 22.034 6.40028 22.243 5.99773C22.4521 5.59519 22.5768 5.15421 22.6096 4.70179C22.6423 4.24937 22.5823 3.79503 22.4333 3.36659ZM64.8333 15.6333C63.2233 14.0188 61.3943 12.6386 59.4 11.5333C59.0192 11.3144 58.599 11.1727 58.1634 11.1162C57.7278 11.0597 57.2853 11.0896 56.8612 11.2041C56.4372 11.3187 56.0398 11.5156 55.6919 11.7837C55.3439 12.0518 55.0522 12.3858 54.8333 12.7666C54.6145 13.1474 54.4728 13.5676 54.4163 14.0032C54.3598 14.4388 54.3897 14.8813 54.5042 15.3054C54.6187 15.7294 54.8157 16.1268 55.0838 16.4747C55.3518 16.8227 55.6858 17.1144 56.0667 17.3333C59.0174 18.9658 61.4534 21.3903 63.1 24.3333C63.542 25.1024 64.2715 25.6644 65.1279 25.8957C65.9843 26.127 66.8975 26.0086 67.6667 25.5666C68.4358 25.1246 68.9978 24.3951 69.2291 23.5387C69.4604 22.6823 69.342 21.7691 68.9 20.9999C67.7893 19.0381 66.4217 17.2332 64.8333 15.6333ZM81 18.2999C79.8346 14.1785 77.6325 10.4245 74.604 7.39594C71.5754 4.36739 67.8214 2.16537 63.7 0.999927C62.8159 0.747971 61.868 0.857525 61.0647 1.30449C60.2615 1.75145 59.6686 2.49921 59.4167 3.38326C59.1647 4.26732 59.2743 5.21525 59.7212 6.01853C60.1682 6.82181 60.916 7.41464 61.8 7.66659C64.8108 8.53845 67.5591 10.1416 69.8 12.3333C71.9293 14.5601 73.4851 17.2713 74.3333 20.2333C74.5945 21.0773 75.1801 21.7831 75.9613 22.1956C76.7426 22.6081 77.6557 22.6936 78.5 22.4333C78.9413 22.3363 79.3582 22.1506 79.7255 21.8875C80.0927 21.6244 80.4027 21.2894 80.6365 20.9028C80.8703 20.5162 81.0231 20.0861 81.0856 19.6387C81.1481 19.1912 81.119 18.7358 81 18.2999ZM46 72.6666H36C35.558 72.6666 35.1341 72.8422 34.8215 73.1547C34.5089 73.4673 34.3333 73.8912 34.3333 74.3333C34.3333 76.1014 35.0357 77.7971 36.286 79.0473C37.5362 80.2975 39.2319 80.9999 41 80.9999C42.7681 80.9999 44.4638 80.2975 45.7141 79.0473C46.9643 77.7971 47.6667 76.1014 47.6667 74.3333C47.6667 73.8912 47.4911 73.4673 47.1785 73.1547C46.866 72.8422 46.442 72.6666 46 72.6666ZM64.3333 62.6666C63.4493 62.6666 62.6014 62.3154 61.9763 61.6903C61.3512 61.0652 61 60.2173 61 59.3333V44.3333C61 32.8333 53.7667 23.2666 44.3333 21.4333V15.9999C44.3333 15.1159 43.9822 14.268 43.357 13.6429C42.7319 13.0178 41.8841 12.6666 41 12.6666C40.116 12.6666 39.2681 13.0178 38.643 13.6429C38.0179 14.268 37.6667 15.1159 37.6667 15.9999V21.4333C28.2333 23.2666 21 32.8333 21 44.3333V59.3333C21 60.2173 20.6488 61.0652 20.0237 61.6903C19.3986 62.3154 18.5507 62.6666 17.6667 62.6666C16.7826 62.6666 15.9348 63.0178 15.3097 63.6429C14.6845 64.268 14.3333 65.1159 14.3333 65.9999C14.3333 66.884 14.6845 67.7318 15.3097 68.357C15.9348 68.9821 16.7826 69.3333 17.6667 69.3333H64.3333C65.2174 69.3333 66.0652 68.9821 66.6904 68.357C67.3155 67.7318 67.6667 66.884 67.6667 65.9999C67.6667 65.1159 67.3155 64.268 66.6904 63.6429C66.0652 63.0178 65.2174 62.6666 64.3333 62.6666Z" fill="#0EA6C0"/>
</svg>
